<?xml version="1.0" encoding="UTF-8"?>
<svg width="125px" height="125px" viewBox="0 0 125 125" version="1.1" xmlns="http://www.w3.org/2000/svg" xmlns:xlink="http://www.w3.org/1999/xlink">
    <title>Icon</title>
    <defs>
        <linearGradient x1="50%" y1="-18.5745431%" x2="50%" y2="100%" id="linearGradient-1">
            <stop stop-color="#C1C1C1" offset="0%"></stop>
            <stop stop-color="#8E8E8E" offset="100%"></stop>
        </linearGradient>
        <linearGradient x1="50%" y1="0%" x2="50%" y2="100%" id="linearGradient-2">
            <stop stop-color="#3247FF" offset="0%"></stop>
            <stop stop-color="#160BA8" offset="100%"></stop>
        </linearGradient>
        <rect id="path-3" x="0" y="0" width="76.3538979" height="77.3555556" rx="7.21111111"></rect>
        <linearGradient x1="50%" y1="-10.424156%" x2="50%" y2="100%" id="linearGradient-5">
            <stop stop-color="#343D55" offset="0%"></stop>
            <stop stop-color="#151925" offset="100%"></stop>
        </linearGradient>
    </defs>
    <g id="Main" stroke="none" stroke-width="1" fill="none" fill-rule="evenodd">
        <g id="Icons" transform="translate(-901.000000, -93.000000)">
            <g id="Icon" transform="translate(907.000000, 99.000000)">
                <path d="M108.450605,117.983068 C105.852092,117.711976 103.553677,116.519111 100.789355,114.005693 C100.557902,113.795127 99.8731511,113.122093 99.2695532,112.512953 C98.4597194,111.689981 98.1532173,111.402966 98.1000823,111.402966 C98.0469473,111.402966 97.7373432,111.696411 96.914901,112.528875 C96.301997,113.144444 95.5984333,113.839833 95.3482684,114.069485 C92.7434513,116.471241 90.73893,117.568469 88.3436511,117.916112 C88.1497233,117.941629 87.7401133,117.957551 87.1553578,117.954387 C86.3923549,117.954387 86.2047312,117.944793 85.8451141,117.884267 C84.2190423,117.613073 82.77434,116.968821 81.5172613,115.957738 C81.1013672,115.622752 80.2914533,114.790288 79.9912554,114.385181 C79.0124882,113.074325 78.4183466,111.642111 78.2150876,110.111095 C78.0743702,109.071311 78.0587349,108.730027 78.118149,108.270722 C78.1337843,108.143137 78.1619278,107.872015 78.1838172,107.671074 C78.2713747,106.74927 78.5215396,105.728593 78.8717705,104.880155 C79.4878036,103.368277 80.5791429,102.012695 81.9018949,101.116407 C84.1940258,99.5598772 87.1209551,99.2217784 90.022858,100.178663 C91.5957948,100.695378 93.1280048,101.63632 94.8229221,103.116302 C95.4639446,103.677674 96.0174094,104.207151 97.0713041,105.269288 C97.77797,105.986957 98.0469473,106.235747 98.1000823,106.235747 C98.1563194,106.235747 98.4628214,105.945487 99.3008738,105.093864 C100.808067,103.569228 101.596087,102.851559 102.58744,102.095625 C103.434799,101.448128 104.060211,101.052615 104.807604,100.68262 C105.83328,100.178662 106.690145,99.9075449 107.809583,99.7416848 C108.097272,99.6970307 108.38186,99.6842722 109.029186,99.6842722 C109.998525,99.6842722 110.408195,99.7353056 111.243146,99.9490099 C114.854827,100.880376 117.547301,103.958361 118.003802,107.671074 C118.028819,107.891153 118.066344,108.184597 118.081954,108.32494 C118.122681,108.650281 118.122681,109.084069 118.081954,109.40941 C118.066344,109.549753 118.028819,109.852762 118.003802,110.07925 C117.794264,111.881358 117.084496,113.661215 116.05882,114.959312 C114.761065,116.60199 112.672188,117.686459 110.283113,117.957551 C109.91407,117.999093 108.763311,118.015015 108.450605,117.983068 Z M88.2407526,114.025824 C89.6820177,113.834331 91.0751094,113.06232 92.7320387,111.538426 C93.1093646,111.192494 95.1067588,109.239667 95.1379907,109.188203 C95.1493396,109.168193 95.1493396,109.13102 95.1351762,109.105292 C95.0840611,109.0138 93.3988051,107.332631 92.9590153,106.935207 C90.8992479,105.071054 89.1656913,104.233333 87.3782415,104.233333 C85.5056844,104.233333 83.9480529,105.202574 83.1848486,106.843715 C82.8387092,107.589953 82.6486118,108.542039 82.6826583,109.35975 C82.7252209,110.303282 83.0486626,111.249677 83.6047553,112.038797 C83.8459134,112.384729 84.3708014,112.913645 84.7169407,113.162413 C85.1708939,113.488308 85.8376332,113.794258 86.4164235,113.940096 C86.9157721,114.068734 87.6647949,114.103044 88.2407526,114.025824 Z M109.412784,114.039148 C110.879122,113.855862 112.070288,113.094122 112.799146,111.874073 C113.332335,110.977709 113.607415,109.703298 113.49397,108.663723 C113.281239,106.710573 111.976628,105.060992 110.170049,104.462442 C109.60564,104.276296 109.307871,104.233333 108.604515,104.233333 C107.875658,104.233333 107.603391,104.276296 106.934069,104.496808 C105.805252,104.871978 104.633961,105.656674 103.215905,106.988363 C102.495578,107.667101 101.060461,109.093301 101.05193,109.141982 C101.034959,109.239353 102.745156,110.951958 103.578927,111.673649 C105.215341,113.091281 106.622051,113.827269 108.0657,114.022011 C108.440066,114.073515 109.083795,114.082129 109.412784,114.039148 Z" id="Shape" fill="url(#linearGradient-1)" fill-rule="nonzero"></path>
                <path d="M24.6780946,113.411111 L14.7927536,113.411111 C6.62294139,113.411111 2.77687028e-15,106.78817 0,98.6183575 L0,14.7927536 C-1.00051344e-15,6.62294139 6.62294139,-7.38101404e-15 14.7927536,0 L98.7264815,0 C106.896294,-3.277127e-15 113.519235,6.62294139 113.519235,14.7927536 L113.519235,49.3091787 L113.519235,49.3091787" id="Path" stroke="url(#linearGradient-2)" stroke-width="10.8480193" stroke-linecap="round"></path>
                <g id="Symbol" transform="translate(18.739919, 18.355556)">
                    <mask id="mask-4" fill="white">
                        <use xlink:href="#path-3"></use>
                    </mask>
                    <g id="Rectangle"></g>
                    <g id="pegasusoui" mask="url(#mask-4)">
                        <g transform="translate(-94.200682, -24.255556)">
                            <path d="M169.921769,63.24056 L163.070089,70.7610528 L155.875821,63.5823966 C155.875821,63.5823966 149.088754,56.8653317 144.913127,54.6945371 C143.438555,53.9279479 141.747917,53.0046026 140.116946,53.3271704 C136.688095,54.0053141 134.127566,57.1383299 131.894926,59.8221468 C128.762876,63.5871342 125.043238,72.8120994 125.043238,72.8120994 L136.691099,79.6489191 L140.116946,82.7254822 L133.093966,102.552254 L131.894926,102.552254 C131.894926,102.552254 132.234664,93.2126783 130.524585,90.5878251 C128.814507,87.962972 128.428633,87.3143373 124.700658,87.1694119 C120.972684,87.0244865 114.825711,91.4621084 110.654703,94.0062316 C106.483696,96.5503548 77.0814466,119.966667 77.0814466,119.966667 L35.9713424,102.210411 L32.2029153,98.7920047 L24.3234812,98.1083247 L20.2124674,100.159365 L18.842134,103.577778 L3.42583896,102.552254 C3.42583896,102.552254 4.75526518,95.5058199 7.53685278,92.9807151 C10.3184472,90.4556035 13.0011276,89.337743 18.4995472,89.2204585 C23.99796,89.103174 39.7397694,94.0062316 39.7397694,94.0062316 L58.9244847,81.0162789 L89.757068,71.1028962 L82.9053805,71.4447395 L77.0814466,67.6844897 L74.6833597,64.9497632 L73.6556062,60.84767 C69.0274294,54.9441583 84.8024272,19.2146042 62.350325,23.2451788 C34.4094417,29.0068582 11.0750438,5.92751148 0,0 C0,0 30.7675143,17.7734313 46.5914501,11.6225928 C62.4153859,5.47175419 71.2570581,9.5437902 76.0536999,16.0665225 C80.8503416,22.5892548 78.7496883,33.9611435 81.5350403,52.6434905 C84.3203924,71.3258375 99.9285599,68.8727927 98.6642555,68.3681697 C98.6642555,68.3681697 85.9956001,58.8940977 90.0996479,57.0874202 L101.747509,51.9598106 L85.6460541,50.2506073 L96.9513353,47.8577174 L84.9608874,40.6790612 L111.33987,40.6790612 L98.6642555,36.5769748 L125.043238,33.8422482 L117.163804,30.0819984 L131.552339,27.0054286 L142.515033,31.1075217 L146.626047,27.6891085 L155.875821,34.5259282 L170.606943,42.7301077 L170.606943,45.1229909 L159.301662,43.4137877 L169.921769,63.24056 Z" id="path4147" fill="url(#linearGradient-5)"></path>
                            <path d="M75.2069435,69.6902591 C69.399232,68.8922823 62.749112,68.3989287 67.9667488,59.0895037 C67.9667488,59.0895037 66.7635709,48.6482311 66.0736396,53.9421341 C64.111439,68.9982108 43.4497706,62.7938146 29.2546835,58.2523013 C20.9470813,55.5944008 45.3651667,71.4147597 55.124102,73.1563134 C61.8119285,74.3498062 86.3974523,71.227834 75.2069435,69.6902591 L75.2069435,69.6902591 Z" id="path4151" fill="#FF2A2A"></path>
                        </g>
                    </g>
                </g>
            </g>
        </g>
    </g>
</svg>