<?xml version="1.0" encoding="UTF-8"?>
<svg width="165px" height="165px" viewBox="0 0 165 165" version="1.1" xmlns="http://www.w3.org/2000/svg" xmlns:xlink="http://www.w3.org/1999/xlink">
    <title>Enabled</title>
    <defs>
        <linearGradient x1="50%" y1="0%" x2="50%" y2="100%" id="linearGradient-1">
            <stop stop-color="#3247FF" offset="0%"></stop>
            <stop stop-color="#160BA8" offset="100%"></stop>
        </linearGradient>
        <rect id="path-2" x="0" y="0" width="116.361111" height="118" rx="11"></rect>
        <linearGradient x1="50%" y1="0%" x2="50%" y2="100%" id="linearGradient-4">
            <stop stop-color="#FFFFFF" offset="0%"></stop>
            <stop stop-color="#CFCFCF" offset="100%"></stop>
        </linearGradient>
    </defs>
    <g id="Main" stroke="none" stroke-width="1" fill="none" fill-rule="evenodd">
        <g id="Icons" transform="translate(-743.000000, -230.000000)">
            <g id="Enabled" transform="translate(743.000000, 230.000000)">
                <rect id="Rectangle" fill="url(#linearGradient-1)" x="0" y="0" width="165" height="165" rx="19"></rect>
                <g id="Symbol" transform="translate(24.559089, 23.000000)">
                    <mask id="mask-3" fill="white">
                        <use xlink:href="#path-2"></use>
                    </mask>
                    <g id="Rectangle"></g>
                    <g id="pegasusoui" mask="url(#mask-3)" fill="url(#linearGradient-4)">
                        <g transform="translate(-143.559089, -37.000000)" id="path4147">
                            <path d="M258.955816,96.4686508 L248.514054,107.940589 L237.550201,96.9900965 C237.550201,96.9900965 227.206908,86.7437263 220.843375,83.4323447 C218.59617,82.2629713 216.019686,80.8544786 213.534136,81.3465312 C208.308665,82.3809876 204.406494,87.1601643 201.004016,91.2541222 C196.230864,96.9973234 190.562244,111.069304 190.562244,111.069304 L208.313245,121.498351 L213.534136,126.191413 L202.831318,156.435642 L201.004016,156.435642 C201.004016,156.435642 201.521767,142.188831 198.915657,138.184818 C196.309548,134.180805 195.721486,133.191362 190.040162,132.970289 C184.358838,132.749217 174.991032,139.51847 168.634537,143.399336 C162.278043,147.280202 117.469874,183 117.469874,183 L54.8192755,155.914186 L49.0763027,150.699668 L37.0682752,149.656767 L30.8032102,152.785471 L28.7148621,158 L5.22087856,156.435642 C5.22087856,156.435642 7.2468853,145.686844 11.4859436,141.834989 C15.7250122,137.983124 19.8133389,136.277913 28.1927699,136.099004 C36.5721904,135.920096 60.5622484,143.399336 60.5622484,143.399336 L89.7991944,123.584154 L136.787151,108.462045 L126.345379,108.983501 L117.469874,103.247527 L113.81526,99.07591 L112.248993,92.8184797 C105.195787,83.8131228 129.236423,29.3104131 95.020075,35.4587473 C52.4389846,44.2477498 16.8780433,9.04196667 0,0 C0,0 46.8887935,27.1120139 71.0040096,17.7293788 C95.1192258,8.34674367 108.593676,14.558324 115.903618,24.5082547 C123.21356,34.4581853 120.012226,51.8051342 124.257021,80.3036296 C128.501816,108.802125 152.288208,105.060192 150.361445,104.290428 C150.361445,104.290428 131.054784,89.8384541 137.309233,87.0825055 L155.060233,79.260728 L130.522086,76.6534688 L147.751004,73.0032977 L129.477912,62.0528051 L169.678711,62.0528051 L150.361445,55.7953852 L190.562244,51.6237685 L178.554217,45.8877942 L200.481924,41.1947216 L217.18875,47.4521518 L223.453815,42.2376231 L237.550201,52.6666701 L260,65.1815203 L260,68.831681 L242.771082,66.2244219 L258.955816,96.4686508 Z"></path>
                        </g>
                    </g>
                </g>
            </g>
        </g>
    </g>
</svg>